<?xml version="1.0" encoding="utf-8"?>
<!-- Generator: Adobe Illustrator 18.1.0, SVG Export Plug-In . SVG Version: 6.00 Build 0)  -->
<svg version="1.1" id="Layer_1" xmlns="http://www.w3.org/2000/svg" xmlns:xlink="http://www.w3.org/1999/xlink" x="0px" y="0px"
	 viewBox="0 0 200 27.3" enable-background="new 0 0 200 27.3" xml:space="preserve">
<g>
	<path d="M49.4,20.3c-1.8,1.5-4.3,2.2-7.5,2.2h-6.8V4.7h7.8c3.1,0,5.5,0.8,7.1,2.4c1.6,1.6,2.4,3.7,2.4,6.5
		C52.4,16.5,51.4,18.7,49.4,20.3z M48.2,8.7C47.1,7.6,45.3,7,42.9,7h-5.2v13.3H42c2.5,0,4.5-0.6,5.8-1.7c1.4-1.1,2-2.8,2-4.9
		C49.9,11.5,49.3,9.8,48.2,8.7z"/>
	<path d="M67.3,21.1c-1.3,1.1-3.3,1.6-6,1.6c-5.5,0-8.2-2.3-8.2-7v-11h2.5v11c0,1.6,0.5,2.8,1.4,3.6c0.9,0.8,2.3,1.2,4.3,1.2
		c2,0,3.4-0.4,4.3-1.2c0.9-0.7,1.3-1.9,1.3-3.5v-11h2.5v11C69.5,18.2,68.7,19.9,67.3,21.1z"/>
	<path d="M84.9,22.5v-8.1H73v8.1h-2.5V4.7H73v7.4h11.8V4.7h2.5v17.8H84.9z"/>
	<path d="M113.7,22.5v-8.4c0-2.3-1.6-3.5-4.8-3.5c-1.5,0-2.8,0.3-3.9,0.9c-1.2,0.7-1.9,1.7-1.9,3v8h-1.6v-8.4c0-2.3-1.6-3.5-4.9-3.5
		c-1.6,0-3,0.4-4,1.2c-1.1,0.9-1.7,2-1.7,3.5v7.2h-1.6V9.7h1.6v1.9c1.2-1.5,3.2-2.2,6-2.2c2.7,0,4.6,0.8,5.6,2.4
		c1.1-1.6,3.1-2.4,6.1-2.4c4.2,0,6.4,1.5,6.4,4.5v8.6H113.7z"/>
	<path d="M119.3,7.4c-0.3,0-0.5-0.2-0.7-0.5V5c0.2-0.3,0.5-0.5,0.7-0.5c0.2,0,0.5,0.1,0.8,0.4v2C119.8,7.2,119.5,7.4,119.3,7.4z
		 M118.5,22.5v-13h1.6v13H118.5z"/>
	<path d="M137.1,22.5v-8.4c0-1.2-0.6-2.2-1.9-2.8c-1-0.5-2.2-0.7-3.7-0.7c-1.8,0-3.3,0.4-4.5,1.1c-1.4,0.9-2.1,2.1-2.1,3.6v7.2h-1.6
		V9.7h1.6v2c1.3-1.5,3.5-2.3,6.5-2.3c1.8,0,3.4,0.3,4.7,0.9c1.7,0.8,2.5,2,2.5,3.7v8.6H137.1z"/>
	<path d="M142.7,7.4c-0.3,0-0.5-0.2-0.7-0.5V5c0.2-0.3,0.5-0.5,0.7-0.5c0.2,0,0.5,0.1,0.8,0.4v2C143.3,7.2,143,7.4,142.7,7.4z
		 M142,22.5v-13h1.6v13H142z"/>
	<path d="M154.1,22.9c-5.2,0-7.8-1.8-7.8-5.3h1.6c0,1.4,0.5,2.4,1.5,3c1,0.6,2.6,1,4.7,1c3.6,0,5.4-0.8,5.4-2.4c0-1-1.2-1.8-3.6-2.2
		c-1.1-0.1-2.3-0.3-3.4-0.4c-1.6-0.2-2.8-0.5-3.7-0.9c-1.1-0.6-1.7-1.4-1.7-2.5c0-1.3,0.8-2.3,2.4-3c1.2-0.5,2.5-0.7,4-0.7
		c5,0,7.5,1.6,7.5,4.7h-1.6c0-1.2-0.4-2-1.3-2.6c-0.9-0.6-2.3-0.8-4.3-0.8c-1.2,0-2.2,0.2-3.2,0.5c-1.2,0.4-1.8,1.1-1.8,2
		c0,1,1.2,1.7,3.6,2l3.8,0.5c3.4,0.4,5.1,1.6,5.1,3.5c0,1.4-0.9,2.5-2.6,3.1C157.3,22.7,155.8,22.9,154.1,22.9z"/>
	<path d="M167.9,11.5v11h-1.4l-0.1-11h-3.5v-1.2h3.5V6.4h1.5v3.9h3.6v1.2H167.9z"/>
	<path d="M176.9,12.4c-1.3,1.2-1.9,2.8-1.9,5v5.2h-1.6V9.7h1.6v2.4c0.5-0.6,1.1-1.2,2-1.6c1.5-0.8,3.3-1.1,5.5-1.1v1.2
		C180,10.6,178.1,11.2,176.9,12.4z"/>
	<path d="M191.6,27.3c-1.9,0-3.4-0.2-4.7-0.7c-1.9-0.7-2.8-2-3-3.9h1.5c0.3,2.3,2.3,3.4,6.3,3.4c4.5,0,6.7-1.4,6.7-4.1v-1.2
		c-1.3,1.6-3.5,2.3-6.5,2.3c-1.9,0-3.5-0.3-4.8-0.9c-1.6-0.8-2.4-2.1-2.4-3.9V9.7h1.6v8.4c0,1.3,0.6,2.3,1.8,2.9
		c1,0.5,2.2,0.7,3.8,0.7c1.9,0,3.5-0.4,4.6-1.1c1.3-0.9,1.9-2.2,1.9-3.9v-7h1.6v12.2C200,25.5,197.2,27.3,191.6,27.3z"/>
</g>
<g>
	<path fill="#FFFFFF" d="M48.9,19.7c-1.8,1.5-4.3,2.2-7.5,2.2h-6.8V4.1h7.8c3.1,0,5.5,0.8,7.1,2.4c1.6,1.6,2.4,3.7,2.4,6.5
		C51.9,15.9,50.9,18.1,48.9,19.7z M47.7,8.1c-1.2-1.2-2.9-1.7-5.3-1.7h-5.2v13.3h4.3c2.5,0,4.5-0.6,5.8-1.7c1.4-1.1,2-2.8,2-4.9
		C49.4,10.9,48.8,9.2,47.7,8.1z"/>
	<path fill="#FFFFFF" d="M66.8,20.5c-1.3,1.1-3.3,1.6-6,1.6c-5.5,0-8.2-2.3-8.2-7v-11h2.5v11c0,1.6,0.5,2.8,1.4,3.6
		c0.9,0.8,2.3,1.2,4.3,1.2c2,0,3.4-0.4,4.3-1.2c0.9-0.7,1.3-1.9,1.3-3.5v-11H69v11C69,17.5,68.2,19.3,66.8,20.5z"/>
	<path fill="#FFFFFF" d="M84.4,21.9v-8.1H72.5v8.1H70V4.1h2.5v7.4h11.8V4.1h2.5v17.8H84.4z"/>
	<path fill="#FFFFFF" d="M113.2,21.9v-8.4c0-2.3-1.6-3.5-4.8-3.5c-1.5,0-2.8,0.3-3.9,0.9c-1.2,0.7-1.9,1.7-1.9,3v8h-1.6v-8.4
		c0-2.3-1.6-3.5-4.9-3.5c-1.6,0-3,0.4-4,1.2c-1.1,0.9-1.7,2-1.7,3.5v7.2H89V9.1h1.6V11c1.2-1.5,3.2-2.2,6-2.2c2.7,0,4.6,0.8,5.6,2.4
		c1.1-1.6,3.1-2.4,6.1-2.4c4.2,0,6.4,1.5,6.4,4.5v8.6H113.2z"/>
	<path fill="#FFFFFF" d="M118.8,6.8c-0.3,0-0.5-0.2-0.7-0.5V4.4c0.2-0.3,0.5-0.5,0.7-0.5c0.2,0,0.5,0.1,0.8,0.4v2
		C119.3,6.6,119,6.8,118.8,6.8z M118,21.9v-13h1.6v13H118z"/>
	<path fill="#FFFFFF" d="M136.6,21.9v-8.4c0-1.2-0.6-2.2-1.9-2.8c-1-0.5-2.2-0.7-3.7-0.7c-1.8,0-3.3,0.4-4.5,1.1
		c-1.4,0.9-2.1,2.1-2.1,3.6v7.2h-1.6V9.1h1.6v2c1.3-1.5,3.5-2.3,6.5-2.3c1.8,0,3.4,0.3,4.7,0.9c1.7,0.8,2.5,2,2.5,3.7v8.6H136.6z"/>
	<path fill="#FFFFFF" d="M142.2,6.8c-0.3,0-0.5-0.2-0.7-0.5V4.4c0.2-0.3,0.5-0.5,0.7-0.5c0.2,0,0.5,0.1,0.8,0.4v2
		C142.8,6.6,142.5,6.8,142.2,6.8z M141.5,21.9v-13h1.6v13H141.5z"/>
	<path fill="#FFFFFF" d="M153.6,22.3c-5.2,0-7.8-1.8-7.8-5.3h1.6c0,1.4,0.5,2.4,1.5,3c1,0.6,2.6,1,4.7,1c3.6,0,5.4-0.8,5.4-2.4
		c0-1-1.2-1.8-3.6-2.2c-1.1-0.1-2.3-0.3-3.4-0.4c-1.6-0.2-2.8-0.5-3.7-0.9c-1.1-0.6-1.7-1.4-1.7-2.5c0-1.3,0.8-2.3,2.4-3
		c1.2-0.5,2.5-0.7,4-0.7c5,0,7.5,1.6,7.5,4.7h-1.6c0-1.2-0.4-2-1.3-2.6c-0.9-0.6-2.3-0.8-4.3-0.8c-1.2,0-2.2,0.2-3.2,0.5
		c-1.2,0.4-1.8,1.1-1.8,2c0,1,1.2,1.7,3.6,2l3.8,0.5c3.4,0.4,5.1,1.6,5.1,3.5c0,1.4-0.9,2.5-2.6,3.1
		C156.8,22.1,155.3,22.3,153.6,22.3z"/>
	<path fill="#FFFFFF" d="M167.4,10.9v11h-1.4l-0.1-11h-3.5V9.7h3.5V5.8h1.5v3.9h3.6v1.2H167.4z"/>
	<path fill="#FFFFFF" d="M176.4,11.8c-1.3,1.2-1.9,2.8-1.9,5v5.2H173V9.1h1.6v2.4c0.5-0.6,1.1-1.2,2-1.6c1.5-0.8,3.3-1.1,5.5-1.1V10
		C179.5,10,177.6,10.6,176.4,11.8z"/>
	<path fill="#FFFFFF" d="M191.1,26.6c-1.9,0-3.4-0.2-4.7-0.7c-1.9-0.7-2.8-2-3-3.9h1.5c0.3,2.3,2.3,3.4,6.3,3.4
		c4.5,0,6.7-1.4,6.7-4.1v-1.2c-1.3,1.6-3.5,2.3-6.5,2.3c-1.9,0-3.5-0.3-4.8-0.9c-1.6-0.8-2.4-2.1-2.4-3.9V9.1h1.6v8.4
		c0,1.3,0.6,2.3,1.8,2.9c1,0.5,2.2,0.7,3.8,0.7c1.9,0,3.5-0.4,4.6-1.1c1.3-0.9,1.9-2.2,1.9-3.9v-7h1.6v12.2
		C199.5,24.9,196.7,26.6,191.1,26.6z"/>
</g>
<g>
	<path fill-rule="evenodd" clip-rule="evenodd" d="M9.4,26.8c-0.5-1.7-1.3-6.2-1.4-7c-0.2-1.9-0.8-2.6-1.9-4.2
		c-0.5-0.7-0.9-1.2-1.4-1.8l0,0c1.2,0.8,3.3,3.6,3.7,5.1c0.9-2.1,0.2-5.7-0.2-7.7C8,10.6,7.7,9.2,7.5,9c0,0-0.2-0.2-0.2-0.2l0,0
		c0.3,0.1,0.4,0.2,0.5,0.5c0.7,1.5,1.3,4.8,1.4,6.5c0.1,0.7,0.1,1.4,0,2.1c0.1,0,0.1-0.1,0.2-0.1c0.7-1,1.6-1.9,2.2-3.1
		c0.3-0.8,0.7-3.6,0.6-4.5c0.2,0.2,0.2,1.1,0.2,1.3c0,1.3-0.1,2.6-0.7,3.8c-0.1,0.2-0.2,0.3-0.3,0.5c0.2-0.1,0.3-0.2,0.5-0.4
		c2.6-2,3.9-3.8,4.3-6.7c0.2-1.9,0.2-1.9-0.6-3.5c-0.1-0.1-0.1-0.2-0.1-0.4c0,0.1,0.1,0.2,0.1,0.3c0.9,1.8,1.1,1.5,0.9,3.7
		c-0.2,2.4-1.1,4.4-3.1,6.2c-0.6,0.6-1.5,1.1-2.1,1.7c1.7-1.1,3.4-1.7,5.3-3.5c1.5-1.5,2.8-3.4,3.7-5.3c0.2-0.5,0.2-0.4,0.2-0.9h0
		c0.1,0.5,0.1,0.5-0.1,1c-0.9,2.1-2.3,4.3-3.9,5.9c-1.7,1.6-3.2,2.1-4.7,3.1c0.1,0,0.1,0,0.2,0c3-0.5,5.5-0.2,8.4-1.5
		c1.5-0.7,3.1-1.2,4.3-2.4l0,0c0.1-0.1,0,0,0.1-0.1c-0.3,1-3.3,2.3-4.3,2.8c-1.6,0.8-3.1,1.1-4.7,1.3c-1,0.1-2.3,0.2-3.5,0.5
		c-1.2,0.3-1.9,0.8-2.3,1.4c-1.7,2.8,0.9,6,2,8.1H9.4z"/>
	<path fill-rule="evenodd" clip-rule="evenodd" d="M18.4,16.2c0.4,0.1,0.8,0.3,1.1,0.7c0.3,0,0.7,0.3,0.9,0.9
		c0.2,0.6,0.1,1.2-0.2,1.3c-0.3,0.1-0.8-0.3-1-0.9c-0.2-0.6-0.1-1.1,0.2-1.3c0,0,0,0,0-0.1c-0.3-0.4-0.9-0.5-1.3-0.5L18.4,16.2z"/>
	<path fill-rule="evenodd" clip-rule="evenodd" d="M18.7,15.9c0.5-0.2,1-0.3,1.5-0.1c0.3-0.3,0.9-0.2,1.5,0.2c0.6,0.4,0.9,1,0.7,1.4
		c-0.2,0.4-0.9,0.3-1.5-0.1c-0.6-0.4-0.9-1-0.7-1.3c0,0,0,0-0.1,0c-0.5-0.1-1.1,0.1-1.6,0.4L18.7,15.9z"/>
	<path fill-rule="evenodd" clip-rule="evenodd" d="M16.4,7.9c-0.1-0.4-0.3-0.9-0.6-1.1c0.1-0.3-0.3-0.8-0.8-1
		c-0.6-0.3-1.2-0.2-1.3,0.1c-0.2,0.3,0.2,0.8,0.8,1.1c0.6,0.3,1.1,0.2,1.3-0.1c0,0,0,0,0,0c0.3,0.3,0.5,0.9,0.4,1.4L16.4,7.9z"/>
	<path fill-rule="evenodd" clip-rule="evenodd" d="M16.2,8.4c0.1-0.5,0.3-1,0.6-1.3c-0.1-0.4,0.3-0.9,0.9-1.2
		C18.4,5.6,19,5.6,19.2,6c0.2,0.4-0.2,1-0.8,1.3c-0.6,0.3-1.3,0.3-1.5-0.1c0,0,0,0-0.1,0.1c-0.4,0.4-0.5,1-0.4,1.6L16.2,8.4z"/>
	<path fill-rule="evenodd" clip-rule="evenodd" d="M12,12.6c0.1-0.4,0.2-0.9,0.6-1.2c-0.1-0.3,0.2-0.8,0.8-1
		c0.6-0.3,1.2-0.2,1.3,0.1c0.2,0.3-0.2,0.8-0.7,1.1c-0.6,0.3-1.1,0.2-1.3-0.1c0,0,0,0,0,0c-0.3,0.4-0.4,0.9-0.4,1.4L12,12.6z"/>
	<path fill-rule="evenodd" clip-rule="evenodd" d="M20.1,15.5c0.4-0.3,0.7-0.8,0.8-1.3c0.4-0.1,0.6-0.7,0.5-1.4
		c-0.1-0.7-0.5-1.3-0.9-1.2c-0.4,0-0.7,0.7-0.6,1.4c0.1,0.7,0.5,1.2,0.9,1.2c0,0,0,0,0,0.1c-0.1,0.5-0.6,1-1.1,1.2L20.1,15.5z"/>
	<path fill-rule="evenodd" clip-rule="evenodd" d="M12.2,11.4c0-0.4-0.3-1.1-0.6-1.3c0.1-0.3-0.2-0.6-0.7-0.9C10.5,9,10,9,9.9,9.3
		C9.8,9.6,10,10,10.5,10.2c0.5,0.2,1,0.2,1.1-0.1c0,0,0,0,0,0c0.3,0.3,0.4,1.1,0.4,1.5L12.2,11.4z"/>
	<path fill-rule="evenodd" clip-rule="evenodd" d="M8.1,10.3C7.9,10,7.4,9.5,7,9.4C7,9.1,6.6,8.9,6.1,8.9c-0.5,0-1,0.3-1,0.6
		c0,0.3,0.4,0.6,1,0.5C6.6,10,7,9.8,7,9.5c0,0,0,0,0.1,0c0.4,0.1,0.9,0.8,1.1,1.2L8.1,10.3z"/>
	<path fill-rule="evenodd" clip-rule="evenodd" d="M6.5,16.1c-0.2-0.5-0.3-1-0.2-1.5c-0.3-0.3-0.3-0.9,0-1.5c0.4-0.6,0.9-1,1.3-0.8
		c0.4,0.2,0.4,0.9,0,1.5c-0.3,0.6-0.9,1-1.3,0.8c0,0,0,0.1,0,0.1c-0.1,0.6,0.2,1.1,0.5,1.6L6.5,16.1z"/>
	<path fill-rule="evenodd" clip-rule="evenodd" d="M6,15.1c0-0.4-0.2-1.6-0.4-1.9c0.1-0.3-0.1-0.7-0.5-0.9c-0.5-0.3-1-0.3-1.1,0
		c-0.2,0.3,0.1,0.7,0.5,1c0.4,0.3,0.9,0.3,1.1,0.1c0,0,0,0,0,0c0.2,0.3,0.3,1.2,0.2,1.6L6,15.1z"/>
	<path fill-rule="evenodd" clip-rule="evenodd" d="M8.1,10.2c0.1-0.4,0.2-1.6,0.1-1.9c0.2-0.2,0.1-0.7-0.3-1
		C7.6,6.8,7.1,6.7,6.9,6.9C6.6,7.1,6.7,7.6,7.1,8c0.3,0.4,0.8,0.5,1,0.4c0,0,0,0,0,0.1C8.2,8.8,8.2,9.6,8,10L8.1,10.2z"/>
	<path fill-rule="evenodd" clip-rule="evenodd" d="M7.2,17.2c-0.5-0.2-1-0.3-1.5-0.1c-0.3-0.3-0.9-0.2-1.5,0.2
		c-0.6,0.4-0.9,1-0.7,1.4C3.8,19,4.5,19,5.1,18.6c0.6-0.4,0.9-1,0.7-1.3c0,0,0,0,0.1,0c0.5-0.1,1.1,0.1,1.6,0.4L7.2,17.2z"/>
	<path fill-rule="evenodd" clip-rule="evenodd" d="M19.7,8.9c0.3-0.2,1-0.6,1.3-0.5c0.1-0.2,0.6-0.3,1.1-0.1
		c0.5,0.2,0.8,0.6,0.7,0.9c-0.1,0.3-0.6,0.4-1.1,0.2c-0.5-0.2-0.8-0.5-0.7-0.8c0,0,0,0-0.1,0c-0.4,0-1.1,0.5-1.4,0.8L19.7,8.9z"/>
	<path fill-rule="evenodd" clip-rule="evenodd" d="M20,8.3c0.5-0.1,1-0.3,1.3-0.7c0.4,0.1,0.9-0.3,1.1-1c0.3-0.7,0.2-1.4-0.2-1.5
		C21.8,5,21.3,5.4,21,6.1c-0.3,0.7-0.2,1.3,0.2,1.5c0,0,0,0-0.1,0.1c-0.3,0.3-0.6,0.4-1,0.5L20,8.3z"/>
	<path fill-rule="evenodd" clip-rule="evenodd" d="M22.7,14.2c0.4-0.2,0.8-0.2,1.1-0.1c0.2-0.2,0.7-0.2,1.1,0.1
		c0.5,0.3,0.7,0.8,0.6,1c-0.2,0.3-0.7,0.3-1.2,0c-0.5-0.3-0.7-0.7-0.6-1c0,0,0,0-0.1,0c-0.3-0.1-0.6,0-0.9,0.2L22.7,14.2z"/>
	<path fill-rule="evenodd" clip-rule="evenodd" d="M11.2,15.7c0.1-0.4,0.1-1.1,0-1.4c0.2-0.2,0.1-0.7-0.3-1
		c-0.4-0.4-0.8-0.5-1.1-0.3c-0.2,0.2-0.1,0.7,0.2,1.1c0.3,0.4,0.8,0.5,1,0.4c0,0,0,0,0,0.1c0.1,0.4,0,1.2-0.2,1.6L11.2,15.7z"/>
	<path fill-rule="evenodd" clip-rule="evenodd" d="M21.9,12.7c-0.2,1.1-0.2,1.5-0.2,1.7c0.2-0.1,0.6-0.3,1.5-0.8
		c1-0.6,1.8-3,1.9-4.2C24,9.9,22.1,11.5,21.9,12.7z"/>
	<path fill-rule="evenodd" clip-rule="evenodd" d="M23,15.1c-0.9,0-1.3,0-1.4,0c0.1,0.1,0.3,0.4,0.9,1.1c0.6,0.8,2.7,1.1,3.7,1
		C25.6,16.5,24.1,15.1,23,15.1z"/>
	<path fill-rule="evenodd" clip-rule="evenodd" d="M25.5,12.7c-0.7,0.5-0.9,0.8-1,0.9c0.1,0,0.5,0.1,1.3,0.3
		c0.9,0.2,2.6-0.8,3.2-1.4C28.2,12.3,26.3,12.2,25.5,12.7z"/>
	<path fill-rule="evenodd" clip-rule="evenodd" d="M18.2,17.8c0-0.8,0-1.2,0-1.3c-0.1,0.1-0.4,0.3-1.1,0.8c-0.7,0.6-1.1,2.5-1,3.4
		C16.8,20.1,18.1,18.7,18.2,17.8z"/>
	<path fill-rule="evenodd" clip-rule="evenodd" d="M19.2,19c-0.3-0.8-0.5-1.1-0.6-1.2c-0.1,0.1-0.2,0.4-0.6,1.2
		c-0.4,0.8,0.1,2.7,0.6,3.5C19.1,21.7,19.6,19.9,19.2,19z"/>
	<path fill-rule="evenodd" clip-rule="evenodd" d="M15.5,14.8c-0.7,0.5-0.9,0.8-1,0.9c0.1,0,0.5,0.1,1.3,0.3
		c0.9,0.2,2.6-0.8,3.2-1.4C18.1,14.3,16.2,14.2,15.5,14.8z"/>
	<path fill-rule="evenodd" clip-rule="evenodd" d="M19.7,5.6c0.4,0.7,0.6,1,0.7,1.1c0.1-0.1,0.2-0.4,0.5-1.2
		c0.3-0.9-0.4-2.7-0.9-3.4C19.6,2.9,19.3,4.8,19.7,5.6z"/>
	<path fill-rule="evenodd" clip-rule="evenodd" d="M23,7c-0.7,0.5-1,0.7-1.1,0.8c0.1,0.1,0.4,0.2,1.2,0.4c0.9,0.3,2.6-0.5,3.4-1.1
		C25.7,6.8,23.8,6.5,23,7z"/>
	<path fill-rule="evenodd" clip-rule="evenodd" d="M17.7,11.9c0.2-0.4,0.2-0.7,0.1-1.1c0.2-0.2,0.2-0.7-0.1-1.1
		c-0.3-0.5-0.7-0.7-1-0.5c-0.3,0.2-0.3,0.7,0,1.1c0.3,0.5,0.7,0.7,1,0.6c0,0,0,0,0,0.1c0.1,0.4-0.1,0.9-0.3,1.2L17.7,11.9z"/>
	<path fill-rule="evenodd" clip-rule="evenodd" d="M20,10.1c-0.6,0.5-0.9,0.7-1,0.8c0.1,0,0.4,0.1,1.2,0.3c0.9,0.2,2.5-0.7,3.1-1.4
		C22.5,9.6,20.7,9.5,20,10.1z"/>
	<path fill-rule="evenodd" clip-rule="evenodd" d="M16.5,13.2c0.3-0.2,0.7-0.4,1.1-0.4c0.2-0.3,0.7-0.3,1.2-0.1
		c0.5,0.2,0.9,0.6,0.8,0.9c-0.1,0.3-0.7,0.4-1.2,0.2c-0.5-0.2-0.9-0.6-0.8-0.9c0,0,0,0-0.1,0c-0.3,0-0.6,0.1-0.9,0.3L16.5,13.2z"/>
	<path fill-rule="evenodd" clip-rule="evenodd" d="M18.6,10.7c-0.2-0.4-0.5-0.9-0.4-1.3c-0.3-0.2-0.3-0.7-0.1-1.2
		c0.2-0.5,0.6-0.9,0.9-0.8c0.3,0.1,0.4,0.6,0.2,1.2c-0.2,0.5-0.6,0.9-0.9,0.8c0,0,0,0,0,0.1c0,0.3,0.2,0.8,0.5,1.1L18.6,10.7z"/>
	<path fill-rule="evenodd" clip-rule="evenodd" d="M16.2,4.6c0.3,1.1,0.4,1.5,0.5,1.6c0.1-0.1,0.4-0.5,1-1.3c0.7-1,0.5-3.5,0.1-4.6
		C17,1.2,15.9,3.4,16.2,4.6z"/>
	<path fill-rule="evenodd" clip-rule="evenodd" d="M14,5.2c0.8,0.2,1.1,0.3,1.3,0.3c0-0.1-0.1-0.5-0.5-1.2c-0.4-0.9-2.1-1.7-3-1.9
		C12.1,3.3,13.1,4.9,14,5.2z"/>
	<path fill-rule="evenodd" clip-rule="evenodd" d="M11.4,8.8c0.4,0.7,0.6,1,0.7,1.1c0.1-0.1,0.2-0.4,0.5-1.2
		c0.3-0.9-0.3-2.7-0.8-3.4C11.3,6.1,10.9,8,11.4,8.8z"/>
	<path fill-rule="evenodd" clip-rule="evenodd" d="M16,10.4c-0.1-0.5-0.3-1-0.6-1.3c0.1-0.4-0.3-0.9-0.9-1.2
		c-0.7-0.3-1.3-0.3-1.5,0.1c-0.2,0.4,0.2,1,0.8,1.3c0.6,0.3,1.3,0.3,1.5-0.1c0,0,0,0,0.1,0.1c0.4,0.4,0.5,1,0.4,1.6L16,10.4z"/>
	<path fill-rule="evenodd" clip-rule="evenodd" d="M10.1,8.6c0.6,0.2,0.9,0.3,1,0.3c0-0.1-0.1-0.4-0.4-1c-0.3-0.7-1.7-1.3-2.4-1.5
		C8.6,7.1,9.4,8.4,10.1,8.6z"/>
	<path fill-rule="evenodd" clip-rule="evenodd" d="M12.4,13.4c-0.1,0.5-0.2,0.8-0.2,0.9c0.1,0,0.3-0.1,0.8-0.4
		c0.6-0.3,1-1.5,1.1-2.1C13.6,12.1,12.6,12.8,12.4,13.4z"/>
	<path fill-rule="evenodd" clip-rule="evenodd" d="M10.7,12.7c0.6,0.4,0.8,0.5,0.9,0.5c0-0.1,0-0.4-0.1-1c-0.1-0.7-1.2-1.8-1.8-2.1
		C9.7,10.9,10.1,12.3,10.7,12.7z"/>
	<path fill-rule="evenodd" clip-rule="evenodd" d="M4.4,16.8c1-0.2,1.5-0.3,1.6-0.4c-0.1-0.1-0.4-0.4-1.3-1.1
		c-0.9-0.7-3.4-0.6-4.5-0.3C1.2,15.8,3.3,17,4.4,16.8z"/>
	<path fill-rule="evenodd" clip-rule="evenodd" d="M7.6,16.8c0.3,0.5,0.5,0.7,0.5,0.7c0-0.1,0.1-0.3,0.3-0.9
		c0.2-0.6-0.4-1.8-0.8-2.3C7.4,15,7.3,16.3,7.6,16.8z"/>
	<path fill-rule="evenodd" clip-rule="evenodd" d="M6.2,8.5C6.8,8.6,7,8.6,7.1,8.6c0-0.1-0.1-0.3-0.5-0.8C6.3,7.3,5,6.9,4.4,6.9
		C4.7,7.4,5.6,8.4,6.2,8.5z"/>
	<path fill-rule="evenodd" clip-rule="evenodd" d="M3.5,14.4c0.8,0.2,1.1,0.3,1.2,0.3c0-0.1-0.1-0.4-0.4-1.2c-0.3-0.8-2-1.6-2.8-1.8
		C1.7,12.6,2.6,14.2,3.5,14.4z"/>
	<path fill-rule="evenodd" clip-rule="evenodd" d="M7.1,11.1c0.4-0.4,0.6-0.5,0.7-0.6c-0.1,0-0.3-0.1-0.9-0.2
		c-0.6-0.1-1.7,0.6-2.2,1C5.3,11.4,6.6,11.5,7.1,11.1z"/>
	<path fill-rule="evenodd" clip-rule="evenodd" d="M8.4,10.3c0.1,0.4,0.1,0.6,0.2,0.7c0.1-0.1,0.2-0.2,0.5-0.5
		C9.4,10.1,9.3,9,9.2,8.6C8.9,8.9,8.3,9.8,8.4,10.3z"/>
	<path fill-rule="evenodd" clip-rule="evenodd" d="M15.8,12.5c0.1,0.4,0.1,0.6,0.2,0.7c0.1-0.1,0.2-0.2,0.5-0.5
		c0.3-0.4,0.3-1.4,0.1-1.9C16.2,11.1,15.7,12,15.8,12.5z"/>
	<path fill-rule="evenodd" clip-rule="evenodd" d="M24.9,11.6c-0.1,0.6-0.1,0.8-0.1,0.9c0.1,0,0.3-0.2,0.8-0.5
		c0.5-0.4,0.9-1.7,0.9-2.4C26,10,25,10.9,24.9,11.6z"/>
	<path fill-rule="evenodd" clip-rule="evenodd" d="M12.5,10.3c0,0.3,0,0.4,0,0.5c0,0,0.2-0.1,0.4-0.3c0.3-0.2,0.4-0.9,0.4-1.3
		C13,9.4,12.5,9.9,12.5,10.3z"/>
	<path fill-rule="evenodd" clip-rule="evenodd" d="M14.9,3.7c0.3,0.5,0.4,0.7,0.5,0.8c0-0.1,0.2-0.3,0.4-0.9C16,3,15.5,1.8,15.1,1.2
		C14.8,1.8,14.6,3.1,14.9,3.7z"/>
</g>
<g>
	<path fill-rule="evenodd" clip-rule="evenodd" fill="#FFFFFF" d="M9.1,26.6c-0.5-1.7-1.3-6.2-1.4-7c-0.2-1.9-0.8-2.6-1.9-4.2
		c-0.5-0.7-0.9-1.2-1.4-1.8l0,0c1.2,0.8,3.3,3.6,3.7,5.1c0.9-2.1,0.2-5.7-0.2-7.7c-0.1-0.4-0.4-1.9-0.6-2.1c0,0-0.2-0.2-0.2-0.2l0,0
		c0.3,0.1,0.4,0.2,0.5,0.5c0.7,1.5,1.3,4.8,1.4,6.5c0.1,0.7,0.1,1.4,0,2.1c0.1,0,0.1-0.1,0.2-0.1c0.7-1,1.6-1.9,2.2-3.1
		c0.3-0.8,0.7-3.6,0.6-4.5C12,10.1,12,11,12,11.3c0,1.3-0.1,2.6-0.7,3.8c-0.1,0.2-0.2,0.3-0.3,0.5c0.2-0.1,0.3-0.2,0.5-0.4
		c2.6-2,3.9-3.8,4.3-6.7C16,6.5,16,6.6,15.2,4.9c-0.1-0.1-0.1-0.2-0.1-0.4c0,0.1,0.1,0.2,0.1,0.3c0.9,1.8,1.1,1.5,0.9,3.7
		c-0.2,2.4-1.1,4.4-3.1,6.2c-0.6,0.6-1.5,1.1-2.1,1.7c1.7-1.1,3.4-1.7,5.3-3.5c1.5-1.5,2.8-3.4,3.7-5.3c0.2-0.5,0.2-0.4,0.2-0.9h0
		c0.1,0.5,0.1,0.5-0.1,1c-0.9,2.1-2.3,4.3-3.9,5.9c-1.7,1.6-3.2,2.1-4.7,3.1c0.1,0,0.1,0,0.2,0c3-0.5,5.5-0.2,8.4-1.5
		c1.5-0.7,3.1-1.2,4.3-2.4l0,0c0.1-0.1,0,0,0.1-0.1c-0.3,1-3.3,2.3-4.3,2.8c-1.6,0.8-3.1,1.1-4.7,1.3c-1,0.1-2.3,0.2-3.5,0.5
		c-1.2,0.3-1.9,0.8-2.3,1.4c-1.7,2.8,0.9,6,2,8.1H9.1z"/>
	<path fill-rule="evenodd" clip-rule="evenodd" fill="#FFFFFF" d="M18.1,16c0.4,0.1,0.8,0.3,1.1,0.7c0.3,0,0.7,0.3,0.9,0.9
		c0.2,0.6,0.1,1.2-0.2,1.3c-0.3,0.1-0.8-0.3-1-0.9c-0.2-0.6-0.1-1.1,0.2-1.3c0,0,0,0,0-0.1c-0.3-0.4-0.9-0.5-1.3-0.5L18.1,16z"/>
	<path fill-rule="evenodd" clip-rule="evenodd" fill="#FFFFFF" d="M18.4,15.8c0.5-0.2,1-0.3,1.5-0.1c0.3-0.3,0.9-0.2,1.5,0.2
		c0.6,0.4,0.9,1,0.7,1.4c-0.2,0.4-0.9,0.3-1.5-0.1c-0.6-0.4-0.9-1-0.7-1.3c0,0,0,0-0.1,0c-0.5-0.1-1.1,0.1-1.6,0.4L18.4,15.8z"/>
	<path fill-rule="evenodd" clip-rule="evenodd" fill="#FFFFFF" d="M16.1,7.8c-0.1-0.4-0.3-0.9-0.6-1.1c0.1-0.3-0.3-0.8-0.8-1
		c-0.6-0.3-1.2-0.2-1.3,0.1c-0.2,0.3,0.2,0.8,0.8,1.1c0.6,0.3,1.1,0.2,1.3-0.1c0,0,0,0,0,0c0.3,0.3,0.5,0.9,0.4,1.4L16.1,7.8z"/>
	<path fill-rule="evenodd" clip-rule="evenodd" fill="#FFFFFF" d="M15.9,8.3c0.1-0.5,0.3-1,0.6-1.3c-0.1-0.4,0.3-0.9,0.9-1.2
		c0.7-0.3,1.3-0.3,1.5,0.1c0.2,0.4-0.2,1-0.8,1.3c-0.6,0.3-1.3,0.3-1.5-0.1c0,0,0,0-0.1,0.1c-0.4,0.4-0.5,1-0.4,1.6L15.9,8.3z"/>
	<path fill-rule="evenodd" clip-rule="evenodd" fill="#FFFFFF" d="M11.7,12.4c0.1-0.4,0.2-0.9,0.6-1.2c-0.1-0.3,0.2-0.8,0.8-1
		c0.6-0.3,1.2-0.2,1.3,0.1c0.2,0.3-0.2,0.8-0.7,1.1c-0.6,0.3-1.1,0.2-1.3-0.1c0,0,0,0,0,0c-0.3,0.4-0.4,0.9-0.4,1.4L11.7,12.4z"/>
	<path fill-rule="evenodd" clip-rule="evenodd" fill="#FFFFFF" d="M19.8,15.3c0.4-0.3,0.7-0.8,0.8-1.3c0.4-0.1,0.6-0.7,0.5-1.4
		c-0.1-0.7-0.5-1.3-0.9-1.2c-0.4,0-0.7,0.7-0.6,1.4c0.1,0.7,0.5,1.2,0.9,1.2c0,0,0,0,0,0.1c-0.1,0.5-0.6,1-1.1,1.2L19.8,15.3z"/>
	<path fill-rule="evenodd" clip-rule="evenodd" fill="#FFFFFF" d="M11.9,11.3c0-0.4-0.3-1.1-0.6-1.3c0.1-0.3-0.2-0.6-0.7-0.9
		c-0.5-0.2-1-0.2-1.1,0.1c-0.1,0.3,0.1,0.7,0.6,0.9c0.5,0.2,1,0.2,1.1-0.1c0,0,0,0,0,0c0.3,0.3,0.4,1.1,0.4,1.5L11.9,11.3z"/>
	<path fill-rule="evenodd" clip-rule="evenodd" fill="#FFFFFF" d="M7.8,10.2C7.6,9.9,7.1,9.4,6.7,9.2C6.7,9,6.2,8.8,5.7,8.8
		c-0.5,0-1,0.3-1,0.6c0,0.3,0.4,0.6,1,0.5c0.5,0,0.9-0.3,1-0.6c0,0,0,0,0.1,0c0.4,0.1,0.9,0.8,1.1,1.2L7.8,10.2z"/>
	<path fill-rule="evenodd" clip-rule="evenodd" fill="#FFFFFF" d="M6.1,15.9c-0.2-0.5-0.3-1-0.2-1.5c-0.3-0.3-0.3-0.9,0-1.5
		c0.4-0.6,0.9-1,1.3-0.8c0.4,0.2,0.4,0.9,0,1.5c-0.3,0.6-0.9,1-1.3,0.8c0,0,0,0.1,0,0.1c-0.1,0.6,0.2,1.1,0.5,1.6L6.1,15.9z"/>
	<path fill-rule="evenodd" clip-rule="evenodd" fill="#FFFFFF" d="M5.7,14.9c0-0.4-0.2-1.6-0.4-1.9c0.1-0.3-0.1-0.7-0.5-0.9
		c-0.5-0.3-1-0.3-1.1,0c-0.2,0.3,0.1,0.7,0.5,1c0.4,0.3,0.9,0.3,1.1,0.1c0,0,0,0,0,0c0.2,0.3,0.3,1.2,0.2,1.6L5.7,14.9z"/>
	<path fill-rule="evenodd" clip-rule="evenodd" fill="#FFFFFF" d="M7.8,10C7.9,9.7,8,8.5,7.9,8.1c0.2-0.2,0.1-0.7-0.3-1
		C7.2,6.7,6.8,6.5,6.5,6.7C6.3,6.9,6.4,7.4,6.8,7.8c0.3,0.4,0.8,0.5,1,0.4c0,0,0,0,0,0.1c0.1,0.4,0,1.2-0.2,1.6L7.8,10z"/>
	<path fill-rule="evenodd" clip-rule="evenodd" fill="#FFFFFF" d="M6.9,17.1c-0.5-0.2-1-0.3-1.5-0.1c-0.3-0.3-0.9-0.2-1.5,0.2
		c-0.6,0.4-0.9,1-0.7,1.4c0.2,0.4,0.9,0.3,1.5-0.1c0.6-0.4,0.9-1,0.7-1.3c0,0,0,0,0.1,0c0.5-0.1,1.1,0.1,1.6,0.4L6.9,17.1z"/>
	<path fill-rule="evenodd" clip-rule="evenodd" fill="#FFFFFF" d="M19.4,8.7c0.3-0.2,1-0.6,1.3-0.5c0.1-0.2,0.6-0.3,1.1-0.1
		c0.5,0.2,0.8,0.6,0.7,0.9c-0.1,0.3-0.6,0.4-1.1,0.2c-0.5-0.2-0.8-0.5-0.7-0.8c0,0,0,0-0.1,0c-0.4,0-1.1,0.5-1.4,0.8L19.4,8.7z"/>
	<path fill-rule="evenodd" clip-rule="evenodd" fill="#FFFFFF" d="M19.7,8.2c0.5-0.1,1-0.3,1.3-0.7c0.4,0.1,0.9-0.3,1.1-1
		c0.3-0.7,0.2-1.4-0.2-1.5c-0.4-0.2-0.9,0.3-1.2,0.9c-0.3,0.7-0.2,1.3,0.2,1.5c0,0,0,0-0.1,0.1c-0.3,0.3-0.6,0.4-1,0.5L19.7,8.2z"/>
	<path fill-rule="evenodd" clip-rule="evenodd" fill="#FFFFFF" d="M22.4,14c0.4-0.2,0.8-0.2,1.1-0.1c0.2-0.2,0.7-0.2,1.1,0.1
		c0.5,0.3,0.7,0.8,0.6,1c-0.2,0.3-0.7,0.3-1.2,0c-0.5-0.3-0.7-0.7-0.6-1c0,0,0,0-0.1,0c-0.3-0.1-0.6,0-0.9,0.2L22.4,14z"/>
	<path fill-rule="evenodd" clip-rule="evenodd" fill="#FFFFFF" d="M10.9,15.6c0.1-0.4,0.1-1.1,0-1.4c0.2-0.2,0.1-0.7-0.3-1
		c-0.4-0.4-0.8-0.5-1.1-0.3c-0.2,0.2-0.1,0.7,0.2,1.1c0.3,0.4,0.8,0.5,1,0.4c0,0,0,0,0,0.1c0.1,0.4,0,1.2-0.2,1.6L10.9,15.6z"/>
	<path fill-rule="evenodd" clip-rule="evenodd" fill="#FFFFFF" d="M21.5,12.5c-0.2,1.1-0.2,1.5-0.2,1.7c0.2-0.1,0.6-0.3,1.5-0.8
		c1-0.6,1.8-3,1.9-4.2C23.7,9.8,21.7,11.3,21.5,12.5z"/>
	<path fill-rule="evenodd" clip-rule="evenodd" fill="#FFFFFF" d="M22.7,15c-0.9,0-1.3,0-1.4,0c0.1,0.1,0.3,0.4,0.9,1.1
		c0.6,0.8,2.7,1.1,3.7,1C25.3,16.3,23.7,15,22.7,15z"/>
	<path fill-rule="evenodd" clip-rule="evenodd" fill="#FFFFFF" d="M25.2,12.6c-0.7,0.5-0.9,0.8-1,0.9c0.1,0,0.5,0.1,1.3,0.3
		c0.9,0.2,2.6-0.8,3.2-1.4C27.9,12.1,25.9,12,25.2,12.6z"/>
	<path fill-rule="evenodd" clip-rule="evenodd" fill="#FFFFFF" d="M17.8,17.6c0-0.8,0-1.2,0-1.3c-0.1,0.1-0.4,0.3-1.1,0.8
		c-0.7,0.6-1.1,2.5-1,3.4C16.5,20,17.8,18.6,17.8,17.6z"/>
	<path fill-rule="evenodd" clip-rule="evenodd" fill="#FFFFFF" d="M18.9,18.9c-0.3-0.8-0.5-1.1-0.6-1.2c-0.1,0.1-0.2,0.4-0.6,1.2
		c-0.4,0.8,0.1,2.7,0.6,3.5C18.8,21.6,19.3,19.7,18.9,18.9z"/>
	<path fill-rule="evenodd" clip-rule="evenodd" fill="#FFFFFF" d="M15.2,14.6c-0.7,0.5-0.9,0.8-1,0.9c0.1,0,0.5,0.1,1.3,0.3
		c0.9,0.2,2.6-0.8,3.2-1.4C17.8,14.1,15.9,14.1,15.2,14.6z"/>
	<path fill-rule="evenodd" clip-rule="evenodd" fill="#FFFFFF" d="M19.4,5.4c0.4,0.7,0.6,1,0.7,1.1c0.1-0.1,0.2-0.4,0.5-1.2
		c0.3-0.9-0.4-2.7-0.9-3.4C19.3,2.8,18.9,4.6,19.4,5.4z"/>
	<path fill-rule="evenodd" clip-rule="evenodd" fill="#FFFFFF" d="M22.7,6.8c-0.7,0.5-1,0.7-1.1,0.8c0.1,0.1,0.4,0.2,1.2,0.4
		c0.9,0.3,2.6-0.5,3.4-1.1C25.4,6.6,23.5,6.3,22.7,6.8z"/>
	<path fill-rule="evenodd" clip-rule="evenodd" fill="#FFFFFF" d="M17.4,11.8c0.2-0.4,0.2-0.7,0.1-1.1c0.2-0.2,0.2-0.7-0.1-1.1
		c-0.3-0.5-0.7-0.7-1-0.5c-0.3,0.2-0.3,0.7,0,1.1c0.3,0.5,0.7,0.7,1,0.6c0,0,0,0,0,0.1c0.1,0.4-0.1,0.9-0.3,1.2L17.4,11.8z"/>
	<path fill-rule="evenodd" clip-rule="evenodd" fill="#FFFFFF" d="M19.6,9.9c-0.6,0.5-0.9,0.7-1,0.8c0.1,0,0.4,0.1,1.2,0.3
		c0.9,0.2,2.5-0.7,3.1-1.4C22.2,9.4,20.3,9.4,19.6,9.9z"/>
	<path fill-rule="evenodd" clip-rule="evenodd" fill="#FFFFFF" d="M16.2,13c0.3-0.2,0.7-0.4,1.1-0.4c0.2-0.3,0.7-0.3,1.2-0.1
		c0.5,0.2,0.9,0.6,0.8,0.9c-0.1,0.3-0.7,0.4-1.2,0.2c-0.5-0.2-0.9-0.6-0.8-0.9c0,0,0,0-0.1,0c-0.3,0-0.6,0.1-0.9,0.3L16.2,13z"/>
	<path fill-rule="evenodd" clip-rule="evenodd" fill="#FFFFFF" d="M18.3,10.5c-0.2-0.4-0.5-0.9-0.4-1.3c-0.3-0.2-0.3-0.7-0.1-1.2
		c0.2-0.5,0.6-0.9,0.9-0.8C18.9,7.5,19,8,18.8,8.5c-0.2,0.5-0.6,0.9-0.9,0.8c0,0,0,0,0,0.1c0,0.3,0.2,0.8,0.5,1.1L18.3,10.5z"/>
	<path fill-rule="evenodd" clip-rule="evenodd" fill="#FFFFFF" d="M15.9,4.4c0.3,1.1,0.4,1.5,0.5,1.6c0.1-0.1,0.4-0.5,1-1.3
		c0.7-1,0.5-3.5,0.1-4.6C16.7,1,15.6,3.2,15.9,4.4z"/>
	<path fill-rule="evenodd" clip-rule="evenodd" fill="#FFFFFF" d="M13.7,5c0.8,0.2,1.1,0.3,1.3,0.3c0-0.1-0.1-0.5-0.5-1.2
		c-0.4-0.9-2.1-1.7-3-1.9C11.8,3.1,12.8,4.7,13.7,5z"/>
	<path fill-rule="evenodd" clip-rule="evenodd" fill="#FFFFFF" d="M11.1,8.6c0.4,0.7,0.6,1,0.7,1.1c0.1-0.1,0.2-0.4,0.5-1.2
		c0.3-0.9-0.3-2.7-0.8-3.4C11,5.9,10.6,7.8,11.1,8.6z"/>
	<path fill-rule="evenodd" clip-rule="evenodd" fill="#FFFFFF" d="M15.7,10.2c-0.1-0.5-0.3-1-0.6-1.3c0.1-0.4-0.3-0.9-0.9-1.2
		c-0.7-0.3-1.3-0.3-1.5,0.1c-0.2,0.4,0.2,1,0.8,1.3C14.1,9.4,14.8,9.3,15,9C15,9,15,9,15,9c0.4,0.4,0.5,1,0.4,1.6L15.7,10.2z"/>
	<path fill-rule="evenodd" clip-rule="evenodd" fill="#FFFFFF" d="M9.8,8.5c0.6,0.2,0.9,0.3,1,0.3c0-0.1-0.1-0.4-0.4-1
		c-0.3-0.7-1.7-1.3-2.4-1.5C8.3,7,9.1,8.3,9.8,8.5z"/>
	<path fill-rule="evenodd" clip-rule="evenodd" fill="#FFFFFF" d="M12.1,13.3c-0.1,0.5-0.2,0.8-0.2,0.9c0.1,0,0.3-0.1,0.8-0.4
		c0.6-0.3,1-1.5,1.1-2.1C13.3,11.9,12.3,12.7,12.1,13.3z"/>
	<path fill-rule="evenodd" clip-rule="evenodd" fill="#FFFFFF" d="M10.4,12.6c0.6,0.4,0.8,0.5,0.9,0.5c0-0.1,0-0.4-0.1-1
		c-0.1-0.7-1.2-1.8-1.8-2.1C9.4,10.7,9.8,12.2,10.4,12.6z"/>
	<path fill-rule="evenodd" clip-rule="evenodd" fill="#FFFFFF" d="M4.1,16.6c1-0.2,1.5-0.3,1.6-0.4c-0.1-0.1-0.4-0.4-1.3-1.1
		c-0.9-0.7-3.4-0.6-4.5-0.3C0.9,15.7,3,16.9,4.1,16.6z"/>
	<path fill-rule="evenodd" clip-rule="evenodd" fill="#FFFFFF" d="M7.3,16.6c0.3,0.5,0.5,0.7,0.5,0.7c0-0.1,0.1-0.3,0.3-0.9
		c0.2-0.6-0.4-1.8-0.8-2.3C7.1,14.8,7,16.1,7.3,16.6z"/>
	<path fill-rule="evenodd" clip-rule="evenodd" fill="#FFFFFF" d="M5.9,8.3c0.6,0.1,0.8,0.1,0.9,0.1c0-0.1-0.1-0.3-0.5-0.8
		C6,7.1,4.7,6.7,4.1,6.7C4.4,7.3,5.3,8.2,5.9,8.3z"/>
	<path fill-rule="evenodd" clip-rule="evenodd" fill="#FFFFFF" d="M3.2,14.3c0.8,0.2,1.1,0.3,1.2,0.3c0-0.1-0.1-0.4-0.4-1.2
		c-0.3-0.8-2-1.6-2.8-1.8C1.3,12.4,2.3,14,3.2,14.3z"/>
	<path fill-rule="evenodd" clip-rule="evenodd" fill="#FFFFFF" d="M6.7,10.9c0.4-0.4,0.6-0.5,0.7-0.6c-0.1,0-0.3-0.1-0.9-0.2
		c-0.6-0.1-1.7,0.6-2.2,1C4.9,11.3,6.3,11.3,6.7,10.9z"/>
	<path fill-rule="evenodd" clip-rule="evenodd" fill="#FFFFFF" d="M8.1,10.2c0.1,0.4,0.1,0.6,0.2,0.7c0.1-0.1,0.2-0.2,0.5-0.5
		C9.1,9.9,9,8.9,8.9,8.4C8.5,8.8,8,9.7,8.1,10.2z"/>
	<path fill-rule="evenodd" clip-rule="evenodd" fill="#FFFFFF" d="M15.5,12.4c0.1,0.4,0.1,0.6,0.2,0.7c0.1-0.1,0.2-0.2,0.5-0.5
		c0.3-0.4,0.3-1.4,0.1-1.9C15.9,11,15.4,11.9,15.5,12.4z"/>
	<path fill-rule="evenodd" clip-rule="evenodd" fill="#FFFFFF" d="M24.6,11.4c-0.1,0.6-0.1,0.8-0.1,0.9c0.1,0,0.3-0.2,0.8-0.5
		c0.5-0.4,0.9-1.7,0.9-2.4C25.7,9.9,24.7,10.8,24.6,11.4z"/>
	<path fill-rule="evenodd" clip-rule="evenodd" fill="#FFFFFF" d="M12.2,10.1c0,0.3,0,0.4,0,0.5c0,0,0.2-0.1,0.4-0.3
		C12.9,10.1,13,9.4,13,9C12.7,9.2,12.2,9.8,12.2,10.1z"/>
	<path fill-rule="evenodd" clip-rule="evenodd" fill="#FFFFFF" d="M14.6,3.6c0.3,0.5,0.4,0.7,0.5,0.8c0-0.1,0.2-0.3,0.4-0.9
		c0.2-0.6-0.2-1.9-0.6-2.4C14.5,1.6,14.3,3,14.6,3.6z"/>
</g>
</svg>
